name Run_500 02_newCOP3_v24.mot
datacolumns 19
datarows 15
range 3.11000000 3.12400000
endheader
                time	   R_ground_force_vx	   R_ground_force_vy	   R_ground_force_vz	   R_ground_force_px	   R_ground_force_py	   R_ground_force_pz	   L_ground_force_vx	   L_ground_force_vy	   L_ground_force_vz	   L_ground_force_px	   L_ground_force_py	   L_ground_force_pz	   R_ground_torque_x	   R_ground_torque_y	   R_ground_torque_z	   L_ground_torque_x	   L_ground_torque_y	   L_ground_torque_z	
          3.11000000	       -146.40716600	       1338.05957000	        -39.27526500	          1.08726000	          0.00000000	         -0.30063500	          0.00000000	          0.00000000	          0.00000000	          0.00000000	          0.00000000	          0.00000000	         -0.00000000	          8.61750300	         -0.00000000	          0.00000000	          0.00000000	          0.00000000	
          3.11100000	       -151.93373100	       1355.72937000	        -35.96033500	          1.08425200	          0.00000000	         -0.30099400	          0.00000000	          0.00000000	          0.00000000	          0.00000000	          0.00000000	          0.00000000	         -0.00000000	          8.34251900	         -0.00000000	          0.00000000	          0.00000000	          0.00000000	
          3.11200000	       -157.63874800	       1372.78698700	        -32.67449200	          1.08130200	          0.00000000	         -0.30133000	          0.00000000	          0.00000000	          0.00000000	          0.00000000	          0.00000000	          0.00000000	         -0.00000000	          8.05625300	         -0.00000000	          0.00000000	          0.00000000	          0.00000000	
          3.11300000	       -163.40071100	       1389.29602100	        -29.44311300	          1.07839600	          0.00000000	         -0.30164400	          0.00000000	          0.00000000	          0.00000000	          0.00000000	          0.00000000	          0.00000000	         -0.00000000	          7.75995700	         -0.00000000	          0.00000000	          0.00000000	          0.00000000	
          3.11400000	       -169.10023500	       1405.32470700	        -26.29036700	          1.07551500	          0.00000000	         -0.30193900	          0.00000000	          0.00000000	          0.00000000	          0.00000000	          0.00000000	          0.00000000	         -0.00000000	          7.45489200	         -0.00000000	          0.00000000	          0.00000000	          0.00000000	
          3.11500000	       -174.62313800	       1420.94409200	        -23.23885700	          1.07264200	          0.00000000	         -0.30221900	          0.00000000	          0.00000000	          0.00000000	          0.00000000	          0.00000000	          0.00000000	         -0.00000000	          7.14232200	         -0.00000000	          0.00000000	          0.00000000	          0.00000000	
          3.11600000	       -179.86288500	       1436.22692900	        -20.30930700	          1.06976000	          0.00000000	         -0.30248600	          0.00000000	          0.00000000	          0.00000000	          0.00000000	          0.00000000	          0.00000000	         -0.00000000	          6.82350300	         -0.00000000	          0.00000000	          0.00000000	          0.00000000	
          3.11700000	       -184.72254900	       1451.24560500	        -17.52024300	          1.06685200	          0.00000000	         -0.30274500	          0.00000000	          0.00000000	          0.00000000	          0.00000000	          0.00000000	          0.00000000	         -0.00000000	          6.49968300	         -0.00000000	          0.00000000	          0.00000000	          0.00000000	
          3.11800000	       -189.11630200	       1466.07080100	        -14.88774400	          1.06390400	          0.00000000	         -0.30299700	          0.00000000	          0.00000000	          0.00000000	          0.00000000	          0.00000000	          0.00000000	         -0.00000000	          6.17208400	         -0.00000000	          0.00000000	          0.00000000	          0.00000000	
          3.11900000	       -192.97041300	       1480.76940900	        -12.42522000	          1.06090300	          0.00000000	         -0.30324500	          0.00000000	          0.00000000	          0.00000000	          0.00000000	          0.00000000	          0.00000000	         -0.00000000	          5.84190300	         -0.00000000	          0.00000000	          0.00000000	          0.00000000	
          3.12000000	       -196.22386200	       1495.40344200	        -10.14323200	          1.05783700	          0.00000000	         -0.30349100	          0.00000000	          0.00000000	          0.00000000	          0.00000000	          0.00000000	          0.00000000	         -0.00000000	          5.51030300	         -0.00000000	          0.00000000	          0.00000000	          0.00000000	
          3.12100000	       -198.82847600	       1510.02819800	         -8.04938300	          1.05469800	          0.00000000	         -0.30373700	          0.00000000	          0.00000000	          0.00000000	          0.00000000	          0.00000000	          0.00000000	         -0.00000000	          5.17840800	         -0.00000000	          0.00000000	          0.00000000	          0.00000000	
          3.12200000	       -200.74893200	       1524.69104000	         -6.14825100	          1.05148000	          0.00000000	         -0.30398300	          0.00000000	          0.00000000	          0.00000000	          0.00000000	          0.00000000	          0.00000000	         -0.00000000	          4.84729400	         -0.00000000	          0.00000000	          0.00000000	          0.00000000	
          3.12300000	       -201.96231100	       1539.42993200	         -4.44138800	          1.04817800	          0.00000000	         -0.30422900	          0.00000000	          0.00000000	          0.00000000	          0.00000000	          0.00000000	          0.00000000	         -0.00000000	          4.51798800	         -0.00000000	          0.00000000	          0.00000000	          0.00000000	
          3.12400000	       -202.45765700	       1554.27294900	         -2.92738300	          1.04479100	          0.00000000	         -0.30447500	          0.00000000	          0.00000000	          0.00000000	          0.00000000	          0.00000000	          0.00000000	         -0.00000000	          4.19146300	         -0.00000000	          0.00000000	          0.00000000	          0.00000000	
